<svg id="Слой_1" data-name="Слой 1" xmlns="http://www.w3.org/2000/svg" viewBox="0 0 35.62 8.33"><defs><style>.cls-1{fill:#fff;}.cls-2{fill:#61508d;}</style></defs><g id="Logo_P" data-name="Logo P"><path class="cls-1" d="M8.19,4.33h.18a.12.12,0,0,0,.09,0,0,0,0,0,0,0,0h0a.16.16,0,0,0-.09,0h0a.09.09,0,0,1,0-.07.25.25,0,0,0,0-.07.06.06,0,0,0,0-.07h0a.12.12,0,0,0-.11,0l0,0,0,0,0,0A.12.12,0,0,0,8.05,4,.06.06,0,0,0,8,4v.08a.08.08,0,0,1-.08,0s0,0-.06,0,0,0,0,.05l.11.11A.24.24,0,0,1,8,4.31a.05.05,0,0,1,0,.05l0,.16s0,0,0,0L7.93,4.4a.08.08,0,0,0-.11,0s0,0,0,.05l0,.13,0,0-.09,0h0s0,0,0,0a.45.45,0,0,0,.1.14.54.54,0,0,1,.16.21v0a.56.56,0,0,0,0,.12.06.06,0,0,1,0,0,.22.22,0,0,0-.14-.18.06.06,0,0,0-.06,0s0,0,0,.08a.31.31,0,0,0,0,.1V5h0V5a.24.24,0,0,0-.11-.09h0l0,0,0,.07a.76.76,0,0,0,.17.22l0,0,0,.09a.11.11,0,0,1,0,.11,1,1,0,0,0-.08.14l0,0a.35.35,0,0,0-.1-.25.1.1,0,0,0-.13,0,.35.35,0,0,0,0,.08l0,.12v0h0l0,0A.26.26,0,0,0,7,5.45s-.07,0-.07,0a.1.1,0,0,0,0,.07l0,.09a1.64,1.64,0,0,0,.14.22.76.76,0,0,1,0,.11s0,.07,0,.09a.11.11,0,0,1,0,.1L7,6.26l-.12.1a.2.2,0,0,0,0-.08.31.31,0,0,0,0-.28.18.18,0,0,0-.09-.08c-.06,0-.09,0-.12.07a.49.49,0,0,0-.08.18l0,0,0,0s0,0,0,0a.35.35,0,0,0-.14-.2s-.07,0-.07,0a.86.86,0,0,0,0,.16.35.35,0,0,0,.06.14v0l0,0a.61.61,0,0,1,.05.12,1.48,1.48,0,0,1,0,.21s0,.1-.07.11h0L6,7H6l0,0A.22.22,0,0,0,6,6.8a1.11,1.11,0,0,0,0-.19.11.11,0,0,0-.14-.07l0,0a.43.43,0,0,0-.14.16l0,0s0,0,0,0a.59.59,0,0,0-.05-.22.07.07,0,0,0-.07-.06s0,0,0,.07a.71.71,0,0,0,0,.29.87.87,0,0,1,0,.23.43.43,0,0,0,0,.11s0,0-.06.06l-.21,0L5,7.29l-.32,0h0a2.57,2.57,0,0,1-.68,0h-.1a.33.33,0,0,1-.14,0l-.11,0-.07,0H3.48l-.22-.06,0,0-.14-.05L3,7,2.91,7l-.2-.1a.69.69,0,0,1-.17-.1l-.18-.1L2.23,6.6a.06.06,0,0,1,0,0h0l.08,0h.29l.28-.05h0l.21-.07.12-.07.28-.16.07-.06h0l-.07,0-.19.07-.12,0L3,6.33H2.82l-.14,0H2.29l-.18,0-.2,0,0,0,0,0-.15-.15a.08.08,0,0,1,0-.08l.17,0h0l0,0h.08l.21.06.12,0h0a.2.2,0,0,0-.09-.06A1,1,0,0,0,2,6L1.91,6l-.13-.06-.18,0-.07,0a.09.09,0,0,1-.08,0l-.06-.07h0v0a.17.17,0,0,1-.06-.1s0,0,0,0v0h0a1.3,1.3,0,0,1-.1-.15l-.13-.26A1.17,1.17,0,0,0,1,5.06S1,5,1,4.92A1.22,1.22,0,0,1,.9,4.75s0,0,0,0,0,0,0,0l0-.1s0-.1,0-.16,0-.1,0-.16l0-.11A.76.76,0,0,0,.74,4c0-.09,0-.17,0-.26a2.26,2.26,0,0,1,0-.45,1.11,1.11,0,0,1,0-.19,2.21,2.21,0,0,1,0-.25l0-.13A2.84,2.84,0,0,1,1,2.14a2.91,2.91,0,0,1,.27-.49c.1-.15.2-.29.31-.43A3.35,3.35,0,0,1,2.21.68,3.46,3.46,0,0,1,2.68.37,3.19,3.19,0,0,1,3.34.09L3.62,0h0L3.16.11a3.4,3.4,0,0,0-.82.38,4.54,4.54,0,0,0-.5.36,3.68,3.68,0,0,0-.39.4l-.26.36A2.6,2.6,0,0,0,1,2a2.43,2.43,0,0,0-.16.37c0,.13-.1.27-.14.4A1.57,1.57,0,0,0,.64,3l0,.11s0,.09,0,.14a3,3,0,0,0,0,.31A2.48,2.48,0,0,0,.58,4V4c0,.11,0,.23.05.34s0,0,0,.06l0,.13s0,0,0,.06,0,.09,0,.13,0,.13.07.19a.94.94,0,0,0,.06.15A2.55,2.55,0,0,0,1,5.39a1.71,1.71,0,0,0,.13.23,1.27,1.27,0,0,1,.12.23l.09.22.06.14.12.32.12.3c.07.17.13.33.19.49l.05.09v0l-.06-.3a1.21,1.21,0,0,0-.05-.18l-.06-.19-.14-.33-.06-.15s0,0,0-.05l0,0,.18.19a4,4,0,0,0,.57.45c.08.06.17.1.25.15l.21.1,0,0L3,7.2l.08,0a.22.22,0,0,1,.11,0l.21.22a1.66,1.66,0,0,1,.25.34l0,.07a.42.42,0,0,1,0,.31.05.05,0,0,1,0,0l-.07.07h0a.26.26,0,0,0,.16-.18.43.43,0,0,0,0-.16.9.9,0,0,0-.08-.28.88.88,0,0,0-.12-.17L3.4,7.38s0,0,0,0h0l.19,0,.19,0h.13l.33,0a1.51,1.51,0,0,0,.3,0l.17,0a.12.12,0,0,1,.09,0l.13.13a3,3,0,0,1,.26.34l.06.1a.19.19,0,0,0,0-.08,1.21,1.21,0,0,0-.09-.2,1.21,1.21,0,0,0-.2-.3l0,0a.05.05,0,0,1,0,0H5l.16,0,.16,0,.06,0h.07l.15.09a.15.15,0,0,1,.06,0,.8.8,0,0,0,.2.21.34.34,0,0,0,.15.06.1.1,0,0,0,.11-.08.09.09,0,0,0,0,0A.33.33,0,0,0,6,7.42L6,7.37v0l0,0h.13l.12,0a.18.18,0,0,0,.07,0,.12.12,0,0,0,0-.17h0L6.15,7l0,0,.13-.08.06,0,.12-.08h0s.07,0,.09,0l.1,0,.12.08A.56.56,0,0,0,7,7h.12a.08.08,0,0,0,.07-.09h0a.18.18,0,0,0-.09-.13A.46.46,0,0,0,7,6.71l0,0s0,0,0,0H7a.47.47,0,0,0,.25-.13.12.12,0,0,0,0-.16.27.27,0,0,0-.15-.05H7l0,0,.15-.14a.13.13,0,0,1,.11,0,.31.31,0,0,1,.13,0l.14.07a.66.66,0,0,0,.2,0s.06,0,.06-.08h0A.41.41,0,0,0,7.8,6,.47.47,0,0,0,7.61,6a.05.05,0,0,1,0,0l0,0,.1,0,.1-.09a.1.1,0,0,0,0-.15h0a.18.18,0,0,0-.16,0l-.06,0h0l.12-.17h0l0,0a.38.38,0,0,1,.21,0,.69.69,0,0,0,.2,0,.13.13,0,0,0,.09-.07.12.12,0,0,0,0-.09.25.25,0,0,0-.15,0l0,0a.05.05,0,0,0,0,0H8l.1-.09a.11.11,0,0,0,0-.12S8.05,5,8,5H8L7.9,5l0-.11a.07.07,0,0,1,.05,0h.13a.34.34,0,0,0,.2,0l0,0s0,0,0-.05h0a.13.13,0,0,0-.1-.07h0s0,0,0,0l0,0,.07-.09c0-.07,0-.12-.08-.11a.12.12,0,0,0-.1,0s0-.1,0-.16A.13.13,0,0,1,8.19,4.33Z" transform="translate(0.06)"/><circle class="cls-1" cx="0.76" cy="2.98" r="0.36"/><circle class="cls-1" cx="1.4" cy="1.44" r="0.55"/><path class="cls-1" d="M8.86,1.71a.28.28,0,0,0-.37-.16l-1.9.8h0L5.5,2.81l.89-.75A2.5,2.5,0,0,0,2,4.27L.12,5.06A.29.29,0,0,0,0,5.44a.3.3,0,0,0,.27.17l.11,0L2.22,4.8h0l2.33-1L2.43,5.12A2.5,2.5,0,0,0,6.82,2.87l1.89-.79a.3.3,0,0,0,.16-.37Z" transform="translate(0.06)"/><path class="cls-1" d="M10.37,5.5V2.21h.77V4.88h1.63V5.5Z" transform="translate(0.06)"/><path class="cls-1" d="M14,5.53a1.09,1.09,0,0,1-.5-.1.86.86,0,0,1-.33-.27A.77.77,0,0,1,13,4.77a.67.67,0,0,1,.46-.66A1.66,1.66,0,0,1,14.1,4h.66v.42h-.59a.51.51,0,0,0-.35.09.27.27,0,0,0,0,.43.47.47,0,0,0,.3.08A.81.81,0,0,0,14.47,5a.49.49,0,0,0,.21-.26l.11.34a.7.7,0,0,1-.29.37A1.06,1.06,0,0,1,14,5.53Zm.77,0V5l-.05-.11V4a.45.45,0,0,0-.14-.36.61.61,0,0,0-.44-.13,1.27,1.27,0,0,0-.39.06,1.09,1.09,0,0,0-.34.17l-.26-.51A1.52,1.52,0,0,1,13.6,3a2.33,2.33,0,0,1,.59-.08,1.29,1.29,0,0,1,.9.28,1.06,1.06,0,0,1,.32.85V5.5Z" transform="translate(0.06)"/><path class="cls-1" d="M16.71,5.5,15.65,3h.75l.88,2.18h-.37L17.83,3h.7L17.46,5.5Z" transform="translate(0.06)"/><path class="cls-1" d="M19.52,5.53a1.09,1.09,0,0,1-.5-.1.86.86,0,0,1-.33-.27.77.77,0,0,1-.11-.39A.67.67,0,0,1,19,4.11,1.66,1.66,0,0,1,19.67,4h.67v.42h-.6a.51.51,0,0,0-.35.09.27.27,0,0,0,0,.43.47.47,0,0,0,.3.08A.81.81,0,0,0,20,5a.49.49,0,0,0,.21-.26l.11.34a.7.7,0,0,1-.29.37A1.06,1.06,0,0,1,19.52,5.53Zm.77,0V5l-.05-.11V4a.45.45,0,0,0-.14-.36.61.61,0,0,0-.44-.13,1.27,1.27,0,0,0-.39.06,1.09,1.09,0,0,0-.34.17l-.26-.51a1.52,1.52,0,0,1,.5-.23,2.33,2.33,0,0,1,.59-.08,1.29,1.29,0,0,1,.9.28,1,1,0,0,1,.32.84V5.5Z" transform="translate(0.06)"/><path class="cls-1" d="M23.17,2.94a1.12,1.12,0,0,1,.54.11.88.88,0,0,1,.37.37,1.26,1.26,0,0,1,.14.63V5.5h-.73V4.16a.65.65,0,0,0-.14-.45A.47.47,0,0,0,23,3.57a.71.71,0,0,0-.32.07.56.56,0,0,0-.21.22.76.76,0,0,0-.08.39V5.5h-.73V3h.7v.7l-.13-.21a.87.87,0,0,1,.39-.39A1.11,1.11,0,0,1,23.17,2.94Z" transform="translate(0.06)"/><path class="cls-1" d="M26,5.53a1.22,1.22,0,0,1-.64-.16,1.15,1.15,0,0,1-.45-.45,1.5,1.5,0,0,1,0-1.37,1.15,1.15,0,0,1,.45-.45A1.22,1.22,0,0,1,26,2.94a1,1,0,0,1,.56.14.88.88,0,0,1,.37.42,1.66,1.66,0,0,1,.13.73,1.89,1.89,0,0,1-.12.74.86.86,0,0,1-.37.43A1.11,1.11,0,0,1,26,5.53Zm.13-.6a.58.58,0,0,0,.33-.08.66.66,0,0,0,.23-.24.71.71,0,0,0,.08-.38.69.69,0,0,0-.08-.37.76.76,0,0,0-.23-.24.8.8,0,0,0-.33-.08.73.73,0,0,0-.33.08.59.59,0,0,0-.23.24.81.81,0,0,0-.09.37.82.82,0,0,0,.09.38.53.53,0,0,0,.23.24.54.54,0,0,0,.33.08Zm.66.57V4.23l0-.75V2h.73V5.5Z" transform="translate(0.06)"/><path class="cls-1" d="M28.93,5.53a1.11,1.11,0,0,1-.51-.1.76.76,0,0,1-.32-.27A.69.69,0,0,1,28,4.77a.67.67,0,0,1,.46-.66A1.69,1.69,0,0,1,29.07,4h.67v.42h-.59a.54.54,0,0,0-.36.09.24.24,0,0,0-.09.21.22.22,0,0,0,.11.22A.43.43,0,0,0,29.1,5,.57.57,0,0,0,29.44,5a.49.49,0,0,0,.21-.26l.11.34a.64.64,0,0,1-.29.37A1,1,0,0,1,28.93,5.53Zm.76,0V5l0-.11V4a.46.46,0,0,0-.15-.36.6.6,0,0,0-.43-.13,1.34,1.34,0,0,0-.4.06,1.2,1.2,0,0,0-.34.17l-.25-.51A1.3,1.3,0,0,1,28.57,3a2.39,2.39,0,0,1,.59-.08,1.29,1.29,0,0,1,.9.28,1,1,0,0,1,.32.84V5.5Z" transform="translate(0.06)"/><rect class="cls-1" x="30.71" y="0.35" width="4.92" height="2.6" rx="0.56"/><path class="cls-2" d="M31.38,2.21V.88h.14V2.21Zm.12-.33V1.71l.8-.83h.16l-.59.61-.07.09Zm.84.33-.58-.66.1-.1.64.76Z" transform="translate(0.06)"/><path class="cls-2" d="M32.77,1a.09.09,0,0,1-.1-.09h0a.08.08,0,0,1,0-.07.1.1,0,0,1,.14,0,.07.07,0,0,1,0,.06.09.09,0,0,1,0,.07A.11.11,0,0,1,32.77,1ZM32.7,2.21v-1h.13v1Z" transform="translate(0.06)"/><path class="cls-2" d="M34.45,1.2a.46.46,0,0,1,.21.05.4.4,0,0,1,.15.14.64.64,0,0,1,0,.24v.58h-.14V1.64a.36.36,0,0,0-.07-.24.33.33,0,0,0-.39,0,.28.28,0,0,0-.12.12.43.43,0,0,0,0,.19v.53H34V1.64a.37.37,0,0,0-.08-.24.3.3,0,0,0-.21-.08.41.41,0,0,0-.18.05.22.22,0,0,0-.11.12.33.33,0,0,0,0,.19v.53h-.14v-1h.13v.27l0-.05a.35.35,0,0,1,.15-.17.48.48,0,0,1,.24-.06.43.43,0,0,1,.24.08.38.38,0,0,1,.14.21l-.06,0a.38.38,0,0,1,.16-.19A.5.5,0,0,1,34.45,1.2Z" transform="translate(0.06)"/></g></svg>