<svg width="18" height="17" viewBox="0 0 18 17" fill="none" xmlns="http://www.w3.org/2000/svg">
<path d="M14.28 5.91278e-05H3.78C3.1 0.0400581 2.47 0.220058 1.89 0.540058C1.31 0.860059 0.85 1.31006 0.51 1.89006C0.17 2.47006 0 3.10006 0 3.78006V12.7801C0 13.4601 0.17 14.0901 0.51 14.6701C0.85 15.2501 1.31 15.7001 1.89 16.0201C2.47 16.3401 3.08 16.5201 3.72 16.5601H14.28C14.92 16.5201 15.53 16.3401 16.11 16.0201C16.69 15.7001 17.15 15.2501 17.49 14.6701C17.83 14.0901 18 13.4601 18 12.7801V3.78006C18 3.10006 17.83 2.47006 17.49 1.89006C17.15 1.31006 16.69 0.860059 16.11 0.540058C15.53 0.220058 14.92 0.0400581 14.28 5.91278e-05ZM3.78 1.50006H14.28C14.72 1.54006 15.13 1.68006 15.51 1.92006C15.89 2.16006 16.16 2.50006 16.32 2.94006L10.62 8.70006C10.18 9.14006 9.64 9.36006 9 9.36006C8.36 9.36006 7.82 9.14006 7.38 8.70006L1.68 2.94006C1.84 2.50006 2.11 2.16006 2.49 1.92006C2.87 1.68006 3.28 1.56006 3.72 1.56006L3.78 1.50006ZM14.28 15.0001H3.78C3.14 15.0001 2.6 14.7901 2.16 14.3701C1.72 13.9501 1.5 13.4201 1.5 12.7801V4.92006L6.36 9.72006C6.84 10.2001 7.4 10.5301 8.04 10.7101C8.68 10.8901 9.32 10.8901 9.96 10.7101C10.6 10.5301 11.16 10.2001 11.64 9.72006L16.5 4.92006V12.7801C16.5 13.4201 16.28 13.9501 15.84 14.3701C15.4 14.7901 14.86 15.0001 14.22 15.0001H14.28Z" fill="white"/>
</svg>
