<svg width="28" height="27" viewBox="0 0 28 27" fill="none" xmlns="http://www.w3.org/2000/svg">
  <path d="M16.6961 16.4167C16.6961 16.4167 16.916 16.2005 17.3558 15.768C17.7957 15.3355 18.0156 14.508 18.0156 13.2856C18.0156 12.0631 17.5758 11.0194 16.6961 10.1544C15.8164 9.28948 14.755 8.857 13.5117 8.857C12.2684 8.857 11.207 9.28948 10.3273 10.1544C9.44763 11.0194 9.0078 12.0631 9.0078 13.2856C9.0078 14.508 9.44763 15.5518 10.3273 16.4167C11.207 17.2817 12.2684 17.7141 13.5117 17.7141C14.755 17.7141 15.8164 17.2817 16.6961 16.4167ZM18.4202 8.45912C18.4202 8.45912 18.7575 8.79069 19.4319 9.45382C20.1063 10.117 20.4435 11.3942 20.4435 13.2856C20.4435 15.1769 19.7691 16.7858 18.4202 18.112C17.0714 19.4383 15.4352 20.1014 13.5117 20.1014C11.5882 20.1014 9.95198 19.4383 8.60315 18.112C7.25433 16.7858 6.57992 15.1769 6.57992 13.2856C6.57992 11.3942 7.25433 9.78539 8.60315 8.45912C9.95198 7.13286 11.5882 6.46972 13.5117 6.46972C15.4352 6.46972 17.0714 7.13286 18.4202 8.45912ZM21.8685 5.0685C21.8685 5.0685 21.9477 5.14634 22.1061 5.30204C22.2644 5.45773 22.3436 5.7547 22.3436 6.19294C22.3436 6.63118 22.1852 7.006 21.8685 7.31738C21.5519 7.62877 21.1707 7.78446 20.725 7.78446C20.2793 7.78446 19.8981 7.62877 19.5814 7.31738C19.2647 7.006 19.1064 6.63118 19.1064 6.19294C19.1064 5.7547 19.2647 5.37988 19.5814 5.0685C19.8981 4.75711 20.2793 4.60142 20.725 4.60142C21.1707 4.60142 21.5519 4.75711 21.8685 5.0685ZM14.8576 2.37849C14.8576 2.37849 14.6538 2.37993 14.2462 2.38281C13.8386 2.38569 13.5938 2.38714 13.5117 2.38714C13.4296 2.38714 12.981 2.38425 12.1658 2.37849C11.3506 2.37272 10.7319 2.37272 10.3097 2.37849C9.88747 2.38425 9.32155 2.40155 8.61195 2.43038C7.90235 2.45922 7.29831 2.51688 6.79983 2.60337C6.30135 2.68987 5.88205 2.79655 5.54191 2.92341C4.95546 3.15406 4.43939 3.48851 3.99369 3.92676C3.54799 4.365 3.20786 4.87244 2.97328 5.44908C2.84426 5.78353 2.73577 6.19582 2.6478 6.68596C2.55983 7.17611 2.50119 7.77004 2.47187 8.46777C2.44254 9.1655 2.42495 9.72196 2.41909 10.1371C2.41322 10.5523 2.41322 11.1607 2.41909 11.9622C2.42495 12.7637 2.42788 13.2048 2.42788 13.2856C2.42788 13.3663 2.42495 13.8074 2.41909 14.609C2.41322 15.4105 2.41322 16.0188 2.41909 16.434C2.42495 16.8492 2.44254 17.4056 2.47187 18.1034C2.50119 18.8011 2.55983 19.395 2.6478 19.8852C2.73577 20.3753 2.84426 20.7876 2.97328 21.1221C3.20786 21.6987 3.54799 22.2061 3.99369 22.6444C4.43939 23.0826 4.95546 23.4171 5.54191 23.6477C5.88205 23.7746 6.30135 23.8813 6.79983 23.9678C7.29831 24.0543 7.90235 24.1119 8.61195 24.1408C9.32155 24.1696 9.88747 24.1869 10.3097 24.1927C10.7319 24.1984 11.3506 24.1984 12.1658 24.1927C12.981 24.1869 13.4296 24.184 13.5117 24.184C13.5938 24.184 14.0424 24.1869 14.8576 24.1927C15.6728 24.1984 16.2915 24.1984 16.7137 24.1927C17.1359 24.1869 17.7019 24.1696 18.4115 24.1408C19.121 24.1119 19.7251 24.0543 20.2236 23.9678C20.722 23.8813 21.1414 23.7746 21.4815 23.6477C22.0679 23.4171 22.584 23.0826 23.0297 22.6444C23.4754 22.2061 23.8155 21.6987 24.0501 21.1221C24.1791 20.7876 24.2876 20.3753 24.3756 19.8852C24.4636 19.395 24.5222 18.8011 24.5515 18.1034C24.5809 17.4056 24.5984 16.8492 24.6043 16.434C24.6102 16.0188 24.6102 15.4105 24.6043 14.609C24.5984 13.8074 24.5955 13.3663 24.5955 13.2856C24.5955 13.2048 24.5984 12.7637 24.6043 11.9622C24.6102 11.1607 24.6102 10.5523 24.6043 10.1371C24.5984 9.72196 24.5809 9.1655 24.5515 8.46777C24.5222 7.77004 24.4636 7.17611 24.3756 6.68596C24.2876 6.19582 24.1791 5.78353 24.0501 5.44908C23.8155 4.87244 23.4754 4.365 23.0297 3.92676C22.584 3.48851 22.0679 3.15406 21.4815 2.92341C21.1414 2.79655 20.722 2.68987 20.2236 2.60337C19.7251 2.51688 19.121 2.45922 18.4115 2.43038C17.7019 2.40155 17.1359 2.38425 16.7137 2.37849C16.2915 2.37272 15.6728 2.37272 14.8576 2.37849ZM26.9354 7.80176C26.9941 8.81664 27.0234 10.6446 27.0234 13.2856C27.0234 15.9266 26.9941 17.7545 26.9354 18.7694C26.8181 21.1682 26.091 23.025 24.7539 24.3397C23.4168 25.6544 21.5284 26.3695 19.0888 26.4848C18.0567 26.5425 16.1976 26.5713 13.5117 26.5713C10.8258 26.5713 8.96675 26.5425 7.93461 26.4848C5.49499 26.3695 3.60664 25.6544 2.26954 24.3397C0.932448 23.025 0.205256 21.1682 0.0879668 18.7694C0.0293223 17.7545 0 15.9266 0 13.2856C0 10.6446 0.0293223 8.81664 0.0879668 7.80176C0.205256 5.40295 0.932448 3.54618 2.26954 2.23144C3.60664 0.916712 5.49499 0.201681 7.93461 0.0863552C8.96675 0.0286903 10.8258 -0.000141144 13.5117 -0.000141144C16.1976 -0.000141144 18.0567 0.0286903 19.0888 0.0863552C21.5284 0.201681 23.4168 0.916712 24.7539 2.23144C26.091 3.54618 26.8181 5.40295 26.9354 7.80176Z" fill="white"/>
</svg>
