<svg width="240" height="56" viewBox="0 0 240 56" fill="none" xmlns="http://www.w3.org/2000/svg">
<g clip-path="url(#clip0_969_2494)">
<path d="M55.5409 29.1334C55.9569 29.1334 56.352 29.1334 56.7597 29.1334C56.8745 29.1303 56.9873 29.1027 57.0906 29.0526C57.1939 29.0025 57.2853 28.9309 57.3587 28.8427C57.3846 28.823 57.4055 28.7975 57.42 28.7684C57.4344 28.7392 57.4419 28.7071 57.4419 28.6746C57.4419 28.642 57.4344 28.61 57.42 28.5808C57.4055 28.5516 57.3846 28.5262 57.3587 28.5064C57.2845 28.4367 57.1967 28.383 57.1008 28.3488C57.0049 28.3145 56.9029 28.3003 56.8013 28.3071C56.689 28.3071 56.5767 28.3071 56.4685 28.3071C56.4395 28.225 56.4311 28.1369 56.4441 28.0508C56.4572 27.9646 56.4913 27.883 56.5434 27.8131C56.6437 27.6621 56.7208 27.4969 56.7722 27.3231C56.7894 27.2766 56.796 27.2267 56.7914 27.1773C56.7869 27.1278 56.7712 27.08 56.7457 27.0374C56.7201 26.9948 56.6853 26.9584 56.6438 26.931C56.6024 26.9035 56.5552 26.8858 56.506 26.8789C56.3725 26.8612 56.2367 26.8779 56.1115 26.9273C55.9863 26.9767 55.8758 27.0572 55.7905 27.1612C55.7141 27.265 55.6307 27.3635 55.5409 27.456C55.4862 27.4973 55.426 27.5309 55.362 27.5557C55.3145 27.4952 55.2792 27.4261 55.258 27.3522C55.2453 27.1656 55.1771 26.9869 55.0623 26.8391C54.9475 26.6912 54.7912 26.5807 54.6133 26.5218C54.5535 26.4821 54.4837 26.4601 54.4119 26.4585C54.3401 26.4569 54.2694 26.4756 54.2079 26.5126C54.1464 26.5496 54.0967 26.6033 54.0646 26.6674C54.0326 26.7316 54.0194 26.8035 54.0267 26.8748C54.0267 27.0533 54.0267 27.236 54.0267 27.4269C53.9297 27.4454 53.8299 27.4431 53.7338 27.4202C53.6377 27.3973 53.5476 27.3543 53.4693 27.2941C53.3362 27.2028 53.1782 27.1363 53.0534 27.2941C52.9286 27.4519 53.0534 27.5473 53.1366 27.6387C53.3737 27.8753 53.6233 28.1037 53.8645 28.3362C54.0742 28.5254 54.2728 28.7264 54.4594 28.9382C54.5502 29.0479 54.5989 29.1862 54.5966 29.3285C54.5675 29.6565 54.4885 29.9845 54.4178 30.3706C54.3863 30.2983 54.3488 30.2289 54.3055 30.163C54.1603 29.948 53.996 29.7465 53.8146 29.561C53.7481 29.4885 53.6621 29.4367 53.5668 29.4119C53.4715 29.387 53.3711 29.3901 53.2776 29.4208C53.184 29.4515 53.1014 29.5084 53.0395 29.5849C52.9775 29.6613 52.9391 29.7539 52.9286 29.8516C52.8703 30.1256 52.8287 30.4038 52.7705 30.7152L52.55 30.5699C52.3557 30.4402 52.1528 30.3237 51.9427 30.2211C51.8368 30.1949 51.7247 30.2113 51.6307 30.2668C51.5975 30.2668 51.5975 30.4578 51.6307 30.5159C51.8289 30.8655 52.0754 31.1856 52.3629 31.4667C52.8373 31.8356 53.1977 32.3306 53.4028 32.8949C53.4191 32.9463 53.4191 33.0014 53.4028 33.0527C53.3113 33.3226 53.2073 33.5924 53.1116 33.8582C53.074 33.7832 53.0527 33.7011 53.0492 33.6173C53.0178 33.3516 52.9171 33.0986 52.7573 32.8837C52.5975 32.6688 52.384 32.4995 52.1382 32.3925C52.0769 32.37 52.0115 32.3605 51.9463 32.3648C51.8811 32.3691 51.8175 32.387 51.7597 32.4175C51.6621 32.4659 51.5769 32.536 51.5106 32.6223C51.4442 32.7087 51.3985 32.809 51.377 32.9157C51.3396 33.1357 51.3271 33.3558 51.298 33.58C51.298 33.6464 51.2647 33.7626 51.2397 33.7668C51.1417 33.7688 51.0443 33.7519 50.9527 33.717C50.9153 33.717 50.8945 33.6505 50.8654 33.609C50.6794 33.3424 50.4169 33.1383 50.1124 33.0236C50.0117 33.0018 49.9065 33.0181 49.8171 33.0693C49.7861 33.0922 49.7612 33.1224 49.7445 33.1571C49.7278 33.1918 49.7199 33.2301 49.7214 33.2686C49.7662 33.4446 49.8318 33.6146 49.9169 33.7751C50.2234 34.3225 50.6088 34.8219 51.0609 35.2573C51.1107 35.3113 51.149 35.3749 51.1732 35.4442C51.248 35.6434 51.3229 35.8593 51.3812 36.0545C51.4383 36.1693 51.4681 36.2958 51.4681 36.424C51.4681 36.5522 51.4383 36.6787 51.3812 36.7935C51.1898 37.0924 51.0151 37.4038 50.8279 37.711C50.7901 37.7626 50.7484 37.8112 50.7031 37.8564C50.7236 37.5461 50.6778 37.235 50.5688 36.9437C50.4598 36.6524 50.2901 36.3875 50.0708 36.1666C49.9423 36.053 49.7766 35.9904 49.605 35.9904C49.4333 35.9904 49.2676 36.053 49.1391 36.1666C49.0246 36.3337 48.9244 36.51 48.8396 36.6938C48.7456 36.9507 48.6855 37.2187 48.6607 37.491C48.6607 37.5491 48.6274 37.6529 48.6025 37.6571C48.5302 37.6643 48.4578 37.6452 48.3986 37.6031C48.3358 37.5509 48.2872 37.4838 48.2572 37.408C48.095 37.0966 47.8647 36.8255 47.5833 36.615C47.4211 36.4696 47.1133 36.3991 47.0509 36.5112C46.9656 36.6565 46.9291 36.8253 46.9469 36.9928C46.999 37.1991 47.0759 37.3985 47.1757 37.5865C47.4263 38.1085 47.7228 38.6073 48.0617 39.077C48.2008 39.312 48.3072 39.5648 48.3778 39.8285C48.4402 40.0195 48.4444 40.2437 48.5026 40.4181C48.5492 40.5314 48.5582 40.6567 48.5283 40.7755C48.4984 40.8943 48.431 41.0004 48.3362 41.0782C47.966 41.4145 47.5916 41.7466 47.2173 42.0788L46.4269 42.7846C46.5205 42.5909 46.6011 42.3911 46.6682 42.1867C46.7573 41.8681 46.7732 41.5336 46.7149 41.2079C46.6566 40.8823 46.5254 40.574 46.3312 40.3059C46.2087 40.0772 46.0011 39.9058 45.753 39.8285C45.362 39.7413 45.1332 39.9738 44.9211 40.2437C44.6805 40.6163 44.4955 41.0219 44.372 41.4477C44.3429 41.5058 44.2555 41.5889 44.2181 41.5806C44.1372 41.5512 44.0675 41.4975 44.0184 41.4269C43.9851 41.3854 44.0184 41.3066 43.9852 41.2526C43.8203 40.7351 43.4992 40.2812 43.0659 39.9531C42.8412 39.7911 42.575 39.8534 42.5625 40.1233C42.5367 40.4858 42.5591 40.8502 42.6291 41.2069C42.7409 41.5362 42.8801 41.8556 43.045 42.1618C43.045 42.195 43.045 42.2407 43.045 42.2781C43.0825 42.3902 43.1158 42.5023 43.1615 42.6102C43.3231 42.8679 43.4464 43.1476 43.5276 43.4406C43.5679 43.9044 43.579 44.3704 43.5609 44.8356C43.5609 45.1678 43.5234 45.4791 43.1241 45.5788L43.0908 45.5995C42.4128 45.9691 41.7431 46.3386 41.0609 46.6998C40.9489 46.7332 40.8324 46.7487 40.7156 46.7455C40.7312 46.6798 40.7564 46.6169 40.7905 46.5586C40.9861 46.3126 41.0865 46.0047 41.0733 45.6909C41.0757 45.2723 41.0325 44.8546 40.9444 44.4453C40.909 44.3262 40.8446 44.2176 40.7569 44.1294C40.6692 44.0412 40.5609 43.976 40.4418 43.9398C40.3227 43.9036 40.1964 43.8975 40.0743 43.922C39.9522 43.9464 39.8381 44.0007 39.7422 44.08C39.3454 44.3854 39.0168 44.77 38.7772 45.2093C38.7356 45.2715 38.6357 45.2965 38.5609 45.338C38.5209 45.2773 38.4927 45.2097 38.4777 45.1387C38.4742 44.6189 38.3533 44.1066 38.1241 43.6399C38.0409 43.4531 37.9078 43.2247 37.6416 43.2247C37.3753 43.2247 37.3379 43.507 37.2921 43.7146C37.1902 44.3486 37.1902 44.9947 37.2921 45.6286C37.4126 46.1482 37.4463 46.6841 37.392 47.2146C37.3379 47.443 37.2672 47.6713 37.2339 47.9038C37.2252 48.0036 37.1845 48.0979 37.1178 48.1727C37.0511 48.2475 36.962 48.2988 36.8637 48.319C36.3812 48.4518 35.8945 48.5723 35.4036 48.6844C34.9128 48.7965 34.4635 48.9169 33.9851 48.9791C33.2738 49.0705 32.5542 49.112 31.8387 49.1743H31.7763C30.2503 49.2972 28.7153 49.247 27.2006 49.0248C27.1769 49.0171 27.1545 49.0059 27.1341 48.9916H26.9469C26.8174 49.0114 26.6868 49.0225 26.5559 49.0248C26.2351 49.0293 25.9176 48.9597 25.6282 48.8214C25.3741 48.7958 25.1232 48.7443 24.8795 48.6678C24.7205 48.6411 24.5655 48.5951 24.4178 48.5307C24.2321 48.526 24.0471 48.5065 23.8645 48.4726C23.3778 48.3397 22.8953 48.1778 22.4128 48.0242L22.0925 47.9038L21.1648 47.472C21.0442 47.4264 20.9111 47.3973 20.7905 47.3475C20.5243 47.2312 20.258 47.1067 19.996 46.9821C19.5342 46.7745 19.0683 46.5669 18.6191 46.3469C18.1698 46.1268 17.862 45.9317 17.4835 45.6909C17.105 45.4501 16.6973 45.2259 16.3146 44.9809C16.0151 44.7899 15.7239 44.5657 15.4411 44.3623C15.3828 44.3166 15.3745 44.2045 15.3454 44.1215C15.4082 44.0982 15.474 44.0842 15.5409 44.08C15.7329 44.1225 15.9274 44.153 16.1233 44.1713C16.7648 44.2045 17.4077 44.2045 18.0492 44.1713C18.6773 44.1132 19.2971 43.9679 19.9253 43.8599H19.9627C20.4119 43.6897 20.8695 43.5319 21.3146 43.3493C21.6012 43.2302 21.8792 43.0915 22.1466 42.9341C22.7788 42.5687 23.3945 42.1909 24.0226 41.8089C24.1837 41.6995 24.3379 41.5803 24.4843 41.4519L24.4594 41.402C24.3013 41.4643 24.1432 41.5308 23.981 41.5889C23.565 41.7425 23.1241 41.8919 22.6915 42.0373C22.4253 42.1286 22.1632 42.2241 21.8928 42.2947C21.4768 42.4026 21.0609 42.4898 20.6449 42.5811C20.5992 42.5852 20.5533 42.5852 20.5076 42.5811C20.1416 42.6102 19.7797 42.631 19.4136 42.6683C19.0475 42.7057 18.7896 42.7846 18.4735 42.7887C17.5972 42.7887 16.7181 42.7777 15.8362 42.7555C15.4203 42.7555 15.0334 42.6767 14.6341 42.631C14.175 42.6398 13.7175 42.5767 13.278 42.4442C13.1449 42.3883 13.0181 42.3187 12.8995 42.2366C12.8116 42.1627 12.7295 42.0822 12.654 41.9957C12.3213 41.6553 11.9885 41.3231 11.6599 40.9785C11.5143 40.8249 11.3645 40.663 11.4436 40.4097L12.5792 40.6381C12.6124 40.6381 12.6374 40.6755 12.6665 40.6879C12.7495 40.7347 12.8374 40.7723 12.9286 40.8C13.1033 40.8457 13.2863 40.8623 13.461 40.9121C13.9311 41.0491 14.397 41.2028 14.867 41.3273C15.1291 41.4062 15.3911 41.4768 15.6574 41.5391C15.7708 41.5496 15.885 41.5496 15.9985 41.5391C15.8446 41.3066 15.6033 41.2609 15.4203 41.1529C14.9692 40.9207 14.5054 40.7142 14.0309 40.5343C13.7855 40.4305 13.5317 40.3433 13.2863 40.2395C12.9743 40.1108 12.6707 39.9489 12.3504 39.8243C11.9677 39.6956 11.5683 39.6209 11.1773 39.5088C11.0109 39.4631 10.857 39.3344 10.6948 39.3261C10.592 39.3351 10.4886 39.3181 10.3941 39.2767C10.2997 39.2354 10.2171 39.171 10.154 39.0895C10.0334 38.9151 9.91693 38.7407 9.77966 38.5456C9.75054 38.5082 9.72975 38.4708 9.70479 38.4335C9.51582 38.2437 9.36725 38.0177 9.26801 37.7692C9.22237 37.7062 9.18203 37.6395 9.14738 37.5699L9.08083 37.4702C9.08083 37.4702 9.05587 37.4702 9.05171 37.4453C8.8253 37.1354 8.61964 36.8108 8.43607 36.4738C8.11577 35.8884 7.81627 35.2947 7.52093 34.6968C7.4003 34.456 7.30462 34.2069 7.20895 33.9578C7.11327 33.7087 7.00512 33.3392 6.89281 33.0319C6.74722 32.6458 6.58915 32.2638 6.44356 31.8736C6.41444 31.7947 6.4186 31.6992 6.38948 31.6203C6.36036 31.5414 6.28133 31.4086 6.24805 31.2965C6.18149 31.0723 6.12741 30.8481 6.06918 30.6197C5.9735 30.2668 5.86119 29.9139 5.78632 29.5527C5.71144 29.1915 5.68233 28.8344 5.62409 28.4774C5.58249 28.2283 5.50346 27.9833 5.47434 27.73C5.43274 27.3979 5.43274 27.0574 5.40778 26.7211C5.36202 26.1357 5.27883 25.5545 5.27467 24.9732C5.23575 23.9496 5.28446 22.9245 5.42026 21.9092C5.44294 21.4912 5.49296 21.0751 5.57001 20.6636C5.72808 20.1239 5.6948 19.5426 5.90279 19.0029C5.98844 18.7071 6.05513 18.4062 6.10246 18.1019C6.41863 16.8043 6.86025 15.5404 7.42109 14.3279C7.90583 13.1758 8.49625 12.0708 9.18482 11.0272C9.86702 10.0474 10.5867 9.08827 11.3312 8.15826C12.4849 6.78578 13.8006 5.5576 15.2497 4.50049C16.2648 3.7226 17.3416 3.02834 18.4694 2.42458C19.8747 1.65458 21.3514 1.02195 22.8787 0.535494C23.5151 0.336205 24.1515 0.149362 24.7921 -0.045774C24.7318 -0.0583097 24.6695 -0.0583097 24.6091 -0.045774C23.6399 0.195033 22.6582 0.406784 21.6973 0.68911C19.7376 1.29403 17.8663 2.15394 16.1316 3.24664C14.9545 3.95943 13.8412 4.77202 12.8038 5.67546C11.8554 6.49055 10.9799 7.38659 10.1873 8.3534C9.55504 9.1464 8.9394 9.95601 8.382 10.7947C7.86695 11.5544 7.3988 12.3447 6.98016 13.1612C6.57072 13.9889 6.20418 14.837 5.88199 15.7022C5.54921 16.5782 5.25803 17.4667 4.99181 18.3635C4.8379 18.8742 4.77134 19.4097 4.66735 19.9329C4.61743 20.182 4.55504 20.427 4.5176 20.6761C4.48016 20.9252 4.44272 21.2822 4.41361 21.5812C4.34289 22.2704 4.23889 22.9596 4.20978 23.6571C4.15015 24.711 4.18216 25.7682 4.30546 26.8166C4.30546 26.9121 4.30546 27.0076 4.30546 27.0989C4.37467 27.8725 4.48576 28.6417 4.63824 29.4032C4.66735 29.5278 4.65903 29.6606 4.68815 29.781C4.75887 30.0841 4.84622 30.3789 4.91694 30.6778C4.94605 30.8065 4.91693 30.9477 4.96685 31.093C5.05837 31.3878 5.17068 31.6784 5.26635 31.9732C5.40778 32.3884 5.52842 32.8368 5.68233 33.2644C5.7988 33.5966 5.94439 33.9246 6.0983 34.2484C6.38532 34.9086 6.65986 35.5729 6.976 36.2164C7.23807 36.7478 7.54172 37.2627 7.84954 37.765C8.17031 38.2437 8.44867 38.7494 8.68149 39.2763C8.877 39.7828 9.09747 40.2852 9.28466 40.7917C9.41361 41.1031 9.5592 41.4062 9.70063 41.7217C9.98349 42.44 10.258 43.1624 10.5326 43.8807C10.8071 44.5989 11.0733 45.23 11.3645 45.9068C11.7805 46.9863 12.1965 48.0699 12.6124 49.1452C12.6998 49.3653 12.8246 49.5604 12.9327 49.7888C12.9473 49.7189 12.9473 49.6468 12.9327 49.577C12.808 48.9127 12.6915 48.2401 12.55 47.5758C12.4585 47.1606 12.3421 46.7455 12.2131 46.3303C12.0842 45.9151 11.9219 45.4999 11.7597 45.0847C11.4644 44.3332 11.1565 43.5859 10.8529 42.8344C10.7156 42.4981 10.5659 42.166 10.4369 41.8255C10.4078 41.7342 10.4619 41.6179 10.4743 41.51C10.5685 41.5487 10.6567 41.6004 10.7364 41.6636C11.1524 42.0788 11.5351 42.494 11.9427 42.9092C13.1122 44.0448 14.3897 45.064 15.7572 45.9525C16.3021 46.3137 16.8845 46.6167 17.4544 46.9281C17.9078 47.1772 18.3778 47.4056 18.8396 47.6422C18.9186 47.6796 19.0059 47.6962 19.085 47.7294C19.5218 47.937 19.9502 48.1778 20.4036 48.3439C20.5825 48.4145 20.778 48.4685 20.9652 48.5391C21.2281 48.6001 21.4723 48.724 21.6765 48.9003C22.1424 49.4026 22.6457 49.8718 23.1033 50.3866C23.7577 51.064 24.3174 51.8265 24.7672 52.6535C24.8504 52.8196 24.9253 52.9898 25.0168 53.1517C25.3422 53.7946 25.4091 54.5372 25.204 55.2277C25.1696 55.329 25.1127 55.4212 25.0376 55.4975C24.9003 55.647 24.7547 55.7923 24.6216 55.9459C24.659 55.9459 24.6798 55.9459 24.6965 55.9459C24.9528 55.8488 25.1811 55.69 25.3611 55.4835C25.541 55.2771 25.6671 55.0294 25.7281 54.7627C25.7864 54.4073 25.799 54.0459 25.7655 53.6873C25.7065 53.0206 25.5066 52.374 25.179 51.7899C24.9684 51.3917 24.7115 51.0196 24.4136 50.6814C24.0808 50.2662 23.6981 49.9341 23.3362 49.5604C23.2933 49.4972 23.2557 49.4306 23.2239 49.3611C23.2821 49.3573 23.3405 49.3573 23.3986 49.3611C23.8146 49.4275 24.2306 49.494 24.6466 49.5687C25.0625 49.6434 25.5243 49.7555 25.9693 49.8261C26.2397 49.8718 26.5226 49.8801 26.8013 49.905C27.55 49.9714 28.2946 50.0711 29.0434 50.1001C29.7067 50.1562 30.3745 50.1311 31.0317 50.0254C31.4103 49.9507 31.8138 49.9797 32.2006 49.9382C32.3073 49.9213 32.4166 49.9315 32.5184 49.9678C32.6201 50.0041 32.7111 50.0653 32.783 50.1458C33.0783 50.4447 33.3861 50.7271 33.669 51.0385C34.3212 51.7523 34.9073 52.5235 35.4203 53.3427C35.5617 53.5628 35.7114 53.7579 35.857 53.9987C35.8465 53.815 35.8115 53.6335 35.753 53.459C35.5617 53.0023 35.3745 52.5373 35.1457 52.0972C34.7808 51.3809 34.322 50.7163 33.7813 50.1209C33.7189 50.0545 33.6316 49.9133 33.6565 49.8801C33.7283 49.7945 33.8262 49.7347 33.9352 49.7099C34.0767 49.6725 34.2389 49.7099 34.3762 49.6559C34.732 49.523 35.1018 49.431 35.4785 49.3819C35.8362 49.3206 36.1893 49.2346 36.5351 49.1244C36.6765 49.0871 36.8138 49.0248 36.951 48.9999C37.1022 48.959 37.2616 48.959 37.4128 48.9999C37.7627 49.1721 38.103 49.3634 38.4319 49.5729C38.5934 49.6606 38.7351 49.7808 38.8479 49.9258C39.1984 50.456 39.639 50.9211 40.1499 51.3C40.4497 51.5236 40.8021 51.6666 41.1732 51.7152C41.2838 51.7324 41.397 51.7202 41.5014 51.6797C41.6057 51.6393 41.6976 51.5721 41.7676 51.4849C41.8377 51.3978 41.8834 51.2937 41.9003 51.1832C41.9172 51.0728 41.9045 50.9598 41.8637 50.8558C41.7217 50.4529 41.466 50.0996 41.1274 49.8386C40.9818 49.7182 40.8113 49.6268 40.674 49.4981C40.613 49.4236 40.5832 49.3284 40.5908 49.2324C40.5908 49.195 40.7198 49.1411 40.7905 49.1328C41.09 49.1078 41.3895 49.1328 41.6807 49.0746C41.9551 49.0416 42.2246 48.9761 42.4835 48.8795C42.6616 48.8174 42.8167 48.7031 42.9286 48.5515C42.9938 48.4595 43.0389 48.3549 43.0611 48.2444C43.0833 48.1339 43.082 48.02 43.0573 47.91C43.0326 47.8001 42.985 47.6965 42.9177 47.6061C42.8504 47.5156 42.7648 47.4402 42.6665 47.3848C42.4161 47.249 42.1577 47.1284 41.8928 47.0236C41.9302 46.9655 41.9635 46.8617 42.0384 46.8202C42.3296 46.6334 42.6374 46.4714 42.9411 46.2929C43.0742 46.2182 43.2031 46.1351 43.3321 46.0521C43.5983 45.8777 43.8604 45.6992 44.1307 45.5331C44.163 45.5088 44.2001 45.4917 44.2396 45.483C44.2791 45.4744 44.3201 45.4745 44.3595 45.4833C44.555 45.5829 44.8005 45.5622 44.9585 45.6411C45.1982 45.7166 45.4329 45.8067 45.6615 45.9109C45.9199 46.0794 46.1685 46.2624 46.4061 46.459C46.8048 46.7213 47.2353 46.932 47.6873 47.0859C47.9577 47.0859 48.2281 47.115 48.5193 47.0859C48.5987 47.079 48.6756 47.0544 48.7442 47.0139C48.8128 46.9734 48.8715 46.918 48.9158 46.8519C48.9601 46.7857 48.989 46.7105 49.0003 46.6317C49.0116 46.5529 49.005 46.4726 48.981 46.3967C48.89 46.0404 48.667 45.7318 48.357 45.5331C48.0293 45.3184 47.6637 45.1676 47.2797 45.0889C47.2048 45.0889 47.0925 45.01 47.0883 44.9602C47.0908 44.9185 47.1026 44.8778 47.1227 44.8412C47.1429 44.8046 47.1709 44.7729 47.2048 44.7484C47.2904 44.6959 47.3848 44.6594 47.4835 44.6405C48.1131 44.5492 48.6965 44.2581 49.1474 43.8101C49.2678 43.6583 49.3334 43.4703 49.3334 43.2766C49.3334 43.0829 49.2678 42.8949 49.1474 42.7431C49.0102 42.6201 48.8497 42.5258 48.6754 42.4659C48.501 42.406 48.3164 42.3817 48.1324 42.3943C48.0617 42.3943 47.991 42.3943 47.8579 42.3943C47.894 42.2915 47.9459 42.1948 48.0118 42.1079C48.3321 41.7965 48.6649 41.5017 48.9935 41.1986C49.0891 41.1016 49.2065 41.0287 49.336 40.9861C49.4656 40.9435 49.6034 40.9324 49.7381 40.9536C50.0431 40.9831 50.3412 41.063 50.6199 41.1903C50.9158 41.3595 51.228 41.4986 51.5517 41.6055C51.9916 41.7331 52.4528 41.7713 52.9078 41.7176C52.9729 41.7101 53.0358 41.6894 53.0925 41.6567C53.1492 41.624 53.1986 41.58 53.2376 41.5274C53.2766 41.4749 53.3044 41.4149 53.3192 41.3512C53.334 41.2875 53.3356 41.2214 53.3237 41.1571C53.264 40.9369 53.1428 40.7382 52.9743 40.5841C52.5887 40.334 52.1472 40.1828 51.689 40.144C51.6099 40.144 51.4976 40.0859 51.481 40.0278C51.4643 39.9697 51.5143 39.8575 51.6307 39.8119C51.8729 39.7297 52.1046 39.6196 52.3213 39.4839C52.5865 39.3136 52.8202 39.0987 53.0118 38.8486C53.075 38.7628 53.1172 38.6634 53.135 38.5584C53.1527 38.4533 53.1455 38.3456 53.1139 38.2438C53.0824 38.1421 53.0273 38.0491 52.9532 37.9725C52.8791 37.8958 52.7881 37.8375 52.6873 37.8024C52.506 37.7502 52.3161 37.7351 52.1288 37.7579C51.9415 37.7807 51.7608 37.8411 51.5975 37.9353C51.4628 37.9871 51.3235 38.026 51.1815 38.0515L51.1607 37.9934L51.9926 36.8599C52.0143 36.8245 52.041 36.7924 52.0717 36.7644C52.1341 36.7146 52.1965 36.6399 52.263 36.6316C52.7428 36.5739 53.2294 36.6264 53.6857 36.7852C54.117 36.9465 54.5781 37.0131 55.0376 36.9803C55.165 36.9649 55.2859 36.9155 55.3877 36.8373C55.4894 36.7591 55.5682 36.6551 55.6158 36.5361C55.6217 36.4191 55.5949 36.3027 55.5383 36.2001C55.4817 36.0974 55.3977 36.0125 55.2955 35.9548C54.9972 35.7648 54.6461 35.6747 54.293 35.6974C54.2052 35.6805 54.12 35.6526 54.0392 35.6144C54.085 35.523 54.1266 35.4317 54.1765 35.3404C54.1765 35.3155 54.2306 35.303 54.2555 35.2822C54.4968 35.0746 54.7422 34.867 54.971 34.6595C55.0605 34.5429 55.1186 34.4053 55.1397 34.26C55.1609 34.1146 55.1443 33.9663 55.0916 33.8291C54.9502 33.6049 54.7006 33.6215 54.4718 33.6132C54.432 33.6054 54.391 33.6054 54.3512 33.6132L53.6773 33.8249C53.748 33.5966 53.8188 33.3475 53.8978 33.0984C53.9135 33.0242 53.9535 32.9574 54.0115 32.9085C54.0695 32.8597 54.1422 32.8315 54.2181 32.8285C54.5193 32.8082 54.8218 32.8193 55.1208 32.8617C55.561 32.9793 56.0267 32.9605 56.456 32.8077C56.5681 32.7612 56.6709 32.6951 56.7597 32.6126C56.7848 32.5924 56.8058 32.5675 56.8212 32.5393C56.8367 32.5111 56.8465 32.48 56.85 32.448C56.8535 32.416 56.8506 32.3837 56.8415 32.3528C56.8324 32.3219 56.8174 32.2931 56.7971 32.268C56.7317 32.1463 56.6354 32.044 56.5178 31.9711C56.4003 31.8982 56.2657 31.8575 56.1274 31.8528C55.9985 31.8528 55.8695 31.8528 55.7406 31.8528C55.5284 31.8528 55.4785 31.8113 55.5326 31.6078C55.5672 31.5262 55.6165 31.4516 55.6782 31.3878C55.8585 31.2072 56.0138 31.0033 56.1399 30.7816C56.3104 30.3664 56.1399 30.026 55.6366 30.0592C55.5065 30.0581 55.3775 30.0833 55.2574 30.1333C55.1373 30.1832 55.0286 30.2569 54.9377 30.3498C54.9835 29.9886 55.0584 29.644 55.1166 29.2953C55.2497 29.179 55.3579 29.1334 55.5409 29.1334Z" fill="url(#paint0_linear_969_2494)"/>
<path d="M5.12478 22.445C6.45035 22.445 7.52494 21.3725 7.52494 20.0494C7.52494 18.7264 6.45035 17.6538 5.12478 17.6538C3.7992 17.6538 2.72461 18.7264 2.72461 20.0494C2.72461 21.3725 3.7992 22.445 5.12478 22.445Z" fill="url(#paint1_linear_969_2494)"/>
<path d="M9.40529 13.3605C11.4499 13.3605 13.1075 11.7061 13.1075 9.66535C13.1075 7.62458 11.4499 5.97021 9.40529 5.97021C7.36064 5.97021 5.70312 7.62458 5.70312 9.66535C5.70312 11.7061 7.36064 13.3605 9.40529 13.3605Z" fill="url(#paint2_linear_969_2494)"/>
<path d="M60.083 11.4548C59.8864 10.9901 59.5136 10.6218 59.046 10.4305C58.5784 10.2391 58.054 10.2402 57.5871 10.4334L44.7502 15.7976L37.3791 18.8866L43.4024 13.8421C40.988 10.816 37.6026 8.71294 33.8162 7.88699C30.0299 7.06104 26.0741 7.56271 22.615 9.30749C19.1559 11.0523 16.4049 13.9336 14.8254 17.4661C13.2459 20.9986 12.9343 24.9665 13.9432 28.7015L1.17699 34.0449C0.765988 34.2145 0.42685 34.5215 0.217626 34.9133C0.00840274 35.305 -0.0578961 35.7571 0.0300841 36.1923C0.118064 36.6274 0.354854 37.0185 0.699909 37.2986C1.04497 37.5786 1.47683 37.7303 1.92158 37.7276C2.176 37.7285 2.42795 37.6777 2.66202 37.5781L15.3617 32.2596L31.0605 25.6873L16.751 34.4269C19.1417 37.589 22.5735 39.808 26.4422 40.693C30.3108 41.5781 34.3683 41.0724 37.9002 39.2652C41.432 37.458 44.2119 34.465 45.7503 30.8132C47.2886 27.1614 47.4869 23.0851 46.3101 19.3017L59.0555 13.9625C59.2881 13.8653 59.4992 13.7234 59.6768 13.5447C59.8543 13.3661 59.9949 13.1542 60.0903 12.9213C60.1857 12.6884 60.2342 12.4389 60.2329 12.1873C60.2317 11.9357 60.1807 11.6867 60.083 11.4548Z" fill="url(#paint3_linear_969_2494)"/>
<path d="M70.2578 36.9515V14.8638H75.4117V32.7873H86.4433V36.9391L70.2578 36.9515Z" fill="#61508D"/>
<path d="M94.3803 37.2046C93.2148 37.2338 92.0576 37.0011 90.9943 36.5237C90.1056 36.1236 89.3453 35.4855 88.798 34.6803C88.2827 33.9042 88.0131 32.9914 88.0242 32.0605C87.9901 31.0881 88.2741 30.1311 88.8332 29.3341C89.3923 28.5371 90.1961 27.9435 91.1232 27.6429C92.4846 27.1772 93.9196 26.9634 95.3579 27.0118H99.8462V29.8517H95.8653C94.7034 29.8517 93.9075 30.0413 93.4777 30.4205C93.2702 30.5939 93.1043 30.8114 92.992 31.0571C92.8797 31.3028 92.8239 31.5704 92.8287 31.8404C92.8196 32.1321 92.8829 32.4215 93.0128 32.683C93.1426 32.9445 93.3352 33.1699 93.5733 33.3392C94.1639 33.7357 94.8676 33.9295 95.5783 33.8914C96.3696 33.9041 97.1503 33.7079 97.8412 33.3226C98.5094 32.9383 99.0105 32.3197 99.2472 31.5872L100.004 33.8914C99.6685 34.916 98.9726 35.7846 98.045 36.3369C96.9266 36.9568 95.6586 37.2571 94.3803 37.2046ZM99.5633 36.9513V33.6299L99.2472 32.9033V26.9828C99.2735 26.5272 99.2009 26.0714 99.0343 25.6465C98.8677 25.2215 98.6112 24.8375 98.2821 24.5207C97.6415 23.9312 96.6571 23.6364 95.3287 23.6364C94.4207 23.6321 93.5178 23.7722 92.654 24.0516C91.8405 24.3025 91.0763 24.6915 90.3953 25.2016L88.6565 21.7598C89.67 21.0483 90.8068 20.5303 92.0093 20.2319C93.3077 19.8855 94.6461 19.7111 95.9901 19.7129C98.583 19.7129 100.596 20.3218 102.03 21.5397C103.464 22.7576 104.181 24.6619 104.181 27.2526V36.9389L99.5633 36.9513Z" fill="#61508D"/>
<path d="M112.97 36.9515L105.828 19.9746H110.89L116.826 34.6015H114.297L120.491 19.9912H125.204L118.024 36.9681L112.97 36.9515Z" fill="#61508D"/>
<path d="M131.905 37.2046C130.741 37.2333 129.585 37.0006 128.523 36.5237C127.634 36.1226 126.873 35.4848 126.323 34.6803C125.808 33.9042 125.538 32.9914 125.549 32.0605C125.515 31.0881 125.799 30.1311 126.358 29.3341C126.917 28.5371 127.721 27.9435 128.648 27.6429C130.009 27.1772 131.445 26.9634 132.883 27.0118H137.375V29.8517H133.39C132.228 29.8517 131.432 30.0413 131.003 30.4205C130.795 30.5939 130.629 30.8114 130.517 31.0571C130.405 31.3028 130.349 31.5704 130.354 31.8404C130.345 32.1321 130.408 32.4215 130.538 32.683C130.668 32.9445 130.86 33.1699 131.098 33.3392C131.69 33.7363 132.395 33.9301 133.107 33.8914C133.897 33.9035 134.676 33.7073 135.366 33.3226C136.035 32.9396 136.537 32.3205 136.772 31.5872L137.533 33.8914C137.195 34.9155 136.498 35.7836 135.57 36.3369C134.452 36.9574 133.184 37.2577 131.905 37.2046ZM137.088 36.9513V33.6299L136.772 32.9033V26.9828C136.798 26.5272 136.726 26.0714 136.559 25.6465C136.393 25.2215 136.136 24.8375 135.807 24.5207C135.166 23.9312 134.182 23.6364 132.854 23.6364C131.947 23.6318 131.045 23.772 130.183 24.0516C129.368 24.3015 128.602 24.6906 127.92 25.2016L126.181 21.7598C127.195 21.049 128.332 20.5311 129.534 20.2319C130.833 19.8855 132.171 19.7111 133.515 19.7129C136.111 19.7129 138.124 20.3218 139.555 21.5397C140.986 22.7576 141.703 24.6619 141.706 27.2526V36.9389L137.088 36.9513Z" fill="#61508D"/>
<path d="M156.502 19.7255C157.755 19.7034 158.995 19.978 160.121 20.5268C161.185 21.0738 162.056 21.933 162.617 22.9888C163.275 24.3036 163.59 25.7632 163.532 27.232V36.9514H158.619V27.9918C158.619 26.6079 158.318 25.5976 157.716 24.961C157.387 24.6255 156.989 24.3647 156.55 24.1963C156.111 24.028 155.64 23.956 155.171 23.9853C154.439 23.9731 153.717 24.1459 153.07 24.4876C152.447 24.8247 151.939 25.3411 151.614 25.9699C151.235 26.7791 151.056 27.6678 151.094 28.5606V36.9514H146.161V19.9746H150.874V24.6786L149.992 23.2587C150.583 22.1417 151.497 21.2287 152.617 20.6389C153.815 20.0148 155.151 19.7008 156.502 19.7255Z" fill="#61508D"/>
<path d="M175.437 37.2046C173.923 37.2273 172.429 36.8522 171.106 36.1168C169.83 35.4023 168.779 34.347 168.07 33.0693C167.343 31.6423 166.963 30.0639 166.963 28.4629C166.963 26.8618 167.343 25.2834 168.07 23.8564C168.781 22.5811 169.832 21.5277 171.106 20.8131C172.429 20.0777 173.923 19.7025 175.437 19.7253C176.747 19.6987 178.041 20.0257 179.18 20.6719C180.292 21.3454 181.164 22.3484 181.676 23.5408C182.316 25.1014 182.617 26.7797 182.558 28.4649C182.613 30.1457 182.322 31.82 181.705 33.3849C181.226 34.5932 180.366 35.6133 179.255 36.2911C178.087 36.9293 176.768 37.2446 175.437 37.2046ZM176.269 33.1648C177.042 33.1781 177.805 32.9876 178.482 32.6126C179.149 32.232 179.693 31.6687 180.05 30.9892C180.453 30.2098 180.653 29.3418 180.632 28.4649C180.658 27.5876 180.457 26.7184 180.05 25.9406C179.685 25.2746 179.142 24.7227 178.482 24.3463C177.805 23.9713 177.042 23.7808 176.269 23.7941C175.506 23.7839 174.754 23.9744 174.089 24.3463C173.43 24.7228 172.888 25.2748 172.525 25.9406C172.114 26.7173 171.912 27.587 171.938 28.4649C171.917 29.3423 172.119 30.2108 172.525 30.9892C172.88 31.6685 173.423 32.2319 174.089 32.6126C174.751 32.9824 175.498 33.1728 176.256 33.1648H176.269ZM180.761 36.9513V33.4803L180.857 28.4317L180.537 23.4163V13.5391H185.47V36.9513H180.761Z" fill="#61508D"/>
<path d="M195.258 37.2046C194.094 37.2333 192.938 37.0006 191.876 36.5237C190.987 36.1236 190.227 35.4855 189.68 34.6803C189.161 33.9055 188.89 32.9921 188.902 32.0605C188.868 31.0876 189.152 30.1302 189.712 29.3331C190.272 28.5361 191.077 27.9428 192.005 27.6429C193.368 27.1773 194.804 26.9634 196.244 27.0118H200.74V29.8517H196.755C195.596 29.8517 194.8 30.0413 194.368 30.4205C194.161 30.5941 193.995 30.8117 193.884 31.0575C193.772 31.3032 193.717 31.5707 193.723 31.8404C193.713 32.1318 193.775 32.4211 193.904 32.6826C194.034 32.9441 194.226 33.1697 194.463 33.3392C195.055 33.7363 195.76 33.9301 196.472 33.8914C197.262 33.9041 198.042 33.7079 198.731 33.3226C199.4 32.9396 199.902 32.3205 200.137 31.5872L200.898 33.8914C200.563 34.916 199.867 35.7846 198.939 36.3369C197.816 36.9596 196.542 37.2599 195.258 37.2046ZM200.441 36.9513V33.6299L200.125 32.9033V26.9828C200.151 26.5276 200.079 26.0721 199.913 25.6473C199.747 25.2225 199.492 24.8382 199.164 24.5207C198.518 23.9312 197.532 23.6364 196.206 23.6364C195.299 23.6318 194.398 23.772 193.536 24.0516C192.72 24.3015 191.955 24.6906 191.273 25.2016L189.534 21.7598C190.548 21.049 191.684 20.5311 192.887 20.2319C194.186 19.8852 195.526 19.7107 196.872 19.7129C199.462 19.7129 201.474 20.3218 202.907 21.5397C204.341 22.7576 205.058 24.6619 205.058 27.2526V36.9389L200.441 36.9513Z" fill="#61508D"/>
<path d="M236.227 2.3335H210.641C208.559 2.3335 206.872 4.01761 206.872 6.09506V16.0885C206.872 18.166 208.559 19.8501 210.641 19.8501H236.227C238.309 19.8501 239.996 18.166 239.996 16.0885V6.09506C239.996 4.01761 238.309 2.3335 236.227 2.3335Z" fill="url(#paint4_linear_969_2494)"/>
<path d="M211.793 14.8347V5.9082H212.737V14.8347H211.793ZM212.625 12.6134L212.587 11.4675L217.995 5.9082H219.081L215.133 10.0393L214.597 10.6122L212.625 12.6134ZM218.211 14.8347L214.351 10.3963L214.992 9.70713L219.335 14.8347H218.211Z" fill="currentColor"/>
<path d="M221.144 6.6597C221.057 6.66135 220.971 6.64571 220.89 6.61369C220.81 6.58167 220.736 6.53393 220.674 6.47324C220.612 6.41254 220.563 6.34012 220.529 6.26021C220.496 6.1803 220.479 6.09451 220.479 6.00785C220.478 5.92338 220.494 5.83964 220.527 5.76181C220.56 5.68398 220.609 5.6137 220.67 5.55531C220.8 5.43888 220.969 5.37451 221.144 5.37451C221.319 5.37451 221.488 5.43888 221.618 5.55531C221.68 5.61148 221.729 5.68017 221.762 5.75679C221.795 5.83341 221.811 5.91616 221.81 5.99954C221.812 6.0869 221.796 6.17378 221.764 6.25505C221.732 6.33633 221.684 6.41039 221.622 6.47286C221.56 6.53589 221.486 6.58512 221.403 6.61731C221.321 6.64951 221.233 6.66396 221.144 6.6597ZM220.682 14.8347V8.13775H221.589V14.8347H220.682Z" fill="currentColor"/>
<path d="M232.504 8.07541C232.996 8.06364 233.484 8.17045 233.927 8.3868C234.333 8.59879 234.664 8.93081 234.875 9.33757C235.117 9.83782 235.232 10.3894 235.212 10.9443V14.8346H234.305V11.0357C234.347 10.4564 234.165 9.88305 233.798 9.43307C233.613 9.24717 233.39 9.10285 233.145 9.00977C232.899 8.91668 232.637 8.87698 232.375 8.89332C231.959 8.88253 231.547 8.98134 231.181 9.1798C230.843 9.37154 230.57 9.661 230.399 10.0102C230.206 10.4185 230.112 10.8666 230.125 11.318V14.8388H229.218V11.0398C229.26 10.4598 229.077 9.88576 228.706 9.43723C228.52 9.25112 228.296 9.10674 228.049 9.01368C227.802 8.92062 227.538 8.88101 227.275 8.89748C226.862 8.88872 226.453 8.98745 226.09 9.18396C225.749 9.3742 225.474 9.66395 225.303 10.0143C225.11 10.4226 225.016 10.8707 225.029 11.3222V14.8429H224.122V8.1377H224.991V9.9479L224.85 9.63235C225.046 9.15392 225.394 8.75283 225.84 8.4906C226.329 8.20425 226.888 8.0604 227.454 8.07541C228.046 8.05961 228.629 8.23109 229.118 8.56534C229.595 8.92301 229.916 9.45114 230.012 10.0392L229.655 9.89808C229.847 9.35645 230.213 8.89275 230.694 8.57779C231.232 8.22978 231.864 8.05445 232.504 8.07541Z" fill="currentColor"/>
</g>
<defs>
<linearGradient id="paint0_linear_969_2494" x1="4.21394" y1="27.9999" x2="57.4377" y2="27.9999" gradientUnits="userSpaceOnUse">
<stop stop-color="#8C79A2"/>
<stop offset="1" stop-color="#604F8C"/>
</linearGradient>
<linearGradient id="paint1_linear_969_2494" x1="10.7737" y1="24.4338" x2="-18.3858" y2="1.71103" gradientUnits="userSpaceOnUse">
<stop stop-color="#8C79A2"/>
<stop offset="1" stop-color="#604F8C"/>
</linearGradient>
<linearGradient id="paint2_linear_969_2494" x1="52.2339" y1="42.9133" x2="16.4325" y2="15.0176" gradientUnits="userSpaceOnUse">
<stop stop-color="#8C79A2"/>
<stop offset="1" stop-color="#604F8C"/>
</linearGradient>
<linearGradient id="paint3_linear_969_2494" x1="57.5372" y1="45.2922" x2="21.74" y2="17.3966" gradientUnits="userSpaceOnUse">
<stop stop-color="#8C79A2"/>
<stop offset="1" stop-color="#604F8C"/>
</linearGradient>
<linearGradient id="paint4_linear_969_2494" x1="206.872" y1="11.0939" x2="240" y2="11.0939" gradientUnits="userSpaceOnUse">
<stop stop-color="#8C79A2"/>
<stop offset="1" stop-color="#604F8C"/>
</linearGradient>
<clipPath id="clip0_969_2494">
<rect width="240" height="56" fill="currentColor"/>
</clipPath>
</defs>
</svg>
