<svg width="26" height="22" viewBox="0 0 26 22" fill="none" xmlns="http://www.w3.org/2000/svg">
  <path d="M24.7037 0.234993C24.3512 -0.0598533 23.7818 -0.0866573 22.8056 0.208189C22.1277 0.422622 16.108 2.67417 10.7933 4.84531C6.02097 6.80202 2.14342 8.51749 1.68245 8.73192C1.16725 8.89275 0.0555042 9.37522 0.00127271 10.1257C-0.0258431 10.6082 0.380893 11.0371 1.16725 11.3855C2.00784 11.8144 5.7227 13.0474 6.50906 13.2886C6.78021 14.2 8.38004 19.534 8.46139 19.8557C8.56986 20.3381 8.89524 20.6062 9.05794 20.7134C9.08506 20.7402 9.13929 20.7938 9.19352 20.8206C9.27487 20.8742 9.38333 20.901 9.51891 20.901C9.70872 20.901 9.92564 20.8206 10.1155 20.6866C11.1187 19.8825 12.8541 18.0866 13.3422 17.5773C15.4844 19.2392 17.8163 21.0887 18.0333 21.3031L18.0604 21.3299C18.5756 21.7588 19.1179 22 19.606 22C19.7687 22 19.9314 21.9732 20.0941 21.9196C20.6635 21.732 21.0702 21.1959 21.2058 20.4722C21.2058 20.4454 21.2329 20.3381 21.2871 20.1505C22.2091 16.1835 22.9412 12.6989 23.5378 9.77729C24.1072 6.90924 24.5682 4.0948 24.8393 2.59376C24.8935 2.2185 24.9478 1.92366 24.9749 1.73603C25.0562 1.19994 25.1105 0.583447 24.7037 0.234993ZM7.07849 13.2082L20.0127 4.7381C20.0398 4.71129 20.0941 4.68449 20.1212 4.65769C20.1483 4.65769 20.1483 4.63088 20.1754 4.63088C20.2025 4.63088 20.2025 4.63088 20.2296 4.60408C20.2025 4.63088 20.1754 4.71129 20.1212 4.7649L16.8402 7.79378C14.5624 9.8577 11.5797 12.5649 9.60026 14.334C9.60026 14.334 9.60026 14.334 9.60026 14.3608L9.57314 14.3876C9.57314 14.3876 9.57314 14.4144 9.54602 14.4144C9.54602 14.4412 9.54602 14.4412 9.51891 14.468V14.4948C9.51891 14.4948 9.51891 14.4948 9.51891 14.5216C9.38333 16.0227 9.13929 18.5959 9.03082 19.7484C9.03082 19.7484 9.03082 19.7484 9.03082 19.7216C8.92236 19.4 7.40388 14.2804 7.07849 13.2082Z" fill="white"/>
</svg>
