<svg width="18" height="18" viewBox="0 0 18 18" fill="none" xmlns="http://www.w3.org/2000/svg">
<path d="M15.3 2.64C14.46 1.8 13.49 1.15 12.39 0.690001C11.29 0.23 10.16 0 9 0C7.36 0 5.86 0.4 4.5 1.2C3.14 2 2.06 3.08 1.26 4.44C0.46 5.8 0.06 7.29 0.06 8.91C0.06 10.53 0.46 12.02 1.26 13.38L0 18L4.74 16.74C6.06 17.46 7.48 17.82 9 17.82C10.6 17.82 12.08 17.42 13.44 16.62C14.8 15.82 15.88 14.74 16.68 13.38C17.48 12.02 17.88 10.54 17.88 8.94C17.88 7.74 17.66 6.6 17.22 5.52C16.78 4.44 16.14 3.48 15.3 2.64ZM9 16.32C7.64 16.32 6.38 15.98 5.22 15.3L4.92 15.12L2.1 15.9L2.88 13.14L2.7 12.84C1.94 11.64 1.56 10.35 1.56 8.97C1.56 7.59 1.89 6.33 2.55 5.19C3.21 4.05 4.11 3.15 5.25 2.49C6.39 1.83 7.64 1.5 9 1.5C9.96 1.5 10.9 1.69 11.82 2.07C12.74 2.45 13.55 2.99 14.25 3.69C14.95 4.39 15.48 5.19 15.84 6.09C16.2 6.99 16.38 7.94 16.38 8.94C16.38 10.26 16.05 11.49 15.39 12.63C14.73 13.77 13.83 14.67 12.69 15.33C11.55 15.99 10.32 16.32 9 16.32ZM13.02 10.8C12.22 10.36 11.74 10.12 11.58 10.08C11.42 10.04 11.3 10.02 11.22 10.02C11.14 10.02 11.08 10.08 11.04 10.2C10.88 10.36 10.64 10.64 10.32 11.04C10.2 11.2 10.04 11.22 9.84 11.1L9.66 11.04C9.06 10.76 8.52 10.41 8.04 9.99C7.56 9.57 7.14 9.06 6.78 8.46C6.74 8.34 6.73 8.25 6.75 8.19C6.77 8.13 6.82 8.06 6.9 7.98L7.2 7.62C7.28 7.54 7.36 7.44 7.44 7.32V7.26C7.52 7.14 7.52 7 7.44 6.84L6.72 5.16C6.68 5 6.62 4.9 6.54 4.86C6.46 4.82 6.38 4.8 6.3 4.8H5.82C5.58 4.8 5.38 4.9 5.22 5.1H5.16C4.96 5.34 4.82 5.56 4.74 5.76C4.54 6.12 4.44 6.52 4.44 6.96C4.44 7.4 4.58 7.9 4.86 8.46C4.98 8.74 5.14 9 5.34 9.24L5.4 9.3C5.76 9.82 6.16 10.3 6.6 10.74C7.44 11.62 8.3 12.24 9.18 12.6C9.54 12.76 9.94 12.91 10.38 13.05C10.82 13.19 11.3 13.22 11.82 13.14C12.06 13.14 12.35 13.03 12.69 12.81C13.03 12.59 13.24 12.36 13.32 12.12C13.4 11.88 13.45 11.66 13.47 11.46C13.49 11.26 13.49 11.13 13.47 11.07C13.45 11.01 13.34 10.94 13.14 10.86L13.02 10.8Z" fill="white"/>
</svg>
